<svg width="488" height="134" viewBox="0 0 488 134" fill="none" xmlns="http://www.w3.org/2000/svg">
<path d="M118.758 100.384C106.351 100.384 98.7583 94.4455 98.7583 85.4708H108.589C108.589 89.4511 111.91 92.2902 118.758 92.2902C124.182 92.2902 127.844 89.8621 127.844 86.0091C127.844 82.6335 125.81 81.0148 121.063 80.1372L113.403 78.6531C104.656 77.038 99.842 72.3721 99.842 65.0896C99.842 56.8579 106.694 50.514 118.353 50.514C127.909 50.514 137.132 54.5626 137.132 65.2924H127.576C127.576 60.4345 123.576 58.4102 118.219 58.4102C113.068 58.4102 109.813 60.7037 109.813 64.2121C109.813 67.3849 111.779 69.1382 116.999 70.1504L124.729 71.5681C133.744 73.3214 137.949 78.113 137.949 85.7453C137.938 95.1131 129.539 100.384 118.758 100.384Z" fill="black"/>
<path d="M175.506 92.8932V99.779H170.353C167.233 99.779 164.659 98.7023 163.912 95.6622C161.945 98.6323 157.877 100.454 152.657 100.454C144.86 100.454 139.842 96.4052 139.842 89.6576C139.842 83.3765 144.047 79.1305 153.065 79.1305H162.488V77.903C162.489 76.216 161.82 74.5968 160.627 73.3984C159.435 72.2 157.814 71.5195 156.119 71.5053C152.152 71.4802 149.471 73.5781 149.336 76.7096H140.724C140.724 68.8134 147.233 64.0237 156.454 64.0237C164.116 64.0237 172.048 67.4639 172.048 77.7882V90.8886C172.048 92.642 172.929 92.9129 174.082 92.9129L175.506 92.8932ZM162.488 85.268H154.759C150.692 85.268 149.606 87.1577 149.606 89.0474C149.606 91.9475 151.979 93.0278 155.098 93.0278C159.776 93.0278 162.491 90.7343 162.491 86.5493L162.488 85.268Z" fill="black"/>
<path d="M191.913 90.1941L200.928 64.6859H211.098L197.133 99.779H186.352L172.792 64.6859H175.658C177.699 64.6859 179.69 65.3116 181.361 66.4778C183.032 67.6439 184.302 69.2941 184.998 71.2038L191.913 90.1941Z" fill="black"/>
<path d="M245.404 92.8932V99.779H240.252C237.133 99.779 234.556 98.7023 233.812 95.6622C231.844 98.6323 227.777 100.454 222.556 100.454C214.76 100.454 209.742 96.4052 209.742 89.6576C209.742 83.3765 213.945 79.1305 222.962 79.1305H232.387V77.903C232.389 76.216 231.72 74.5968 230.527 73.3984C229.334 72.2 227.713 71.5195 226.018 71.5053C222.052 71.4802 219.37 73.5781 219.233 76.7096H210.623C210.623 68.8134 217.133 64.0237 226.352 64.0237C234.013 64.0237 241.947 67.4639 241.947 77.7882V90.8886C241.947 92.642 242.829 92.9129 243.981 92.9129L245.404 92.8932ZM232.387 85.268H224.657C220.589 85.268 219.506 87.1577 219.506 89.0474C219.506 91.9475 221.879 93.0278 224.996 93.0278C229.684 93.0278 232.389 90.7343 232.389 86.5493L232.387 85.268Z" fill="black"/>
<path d="M282.016 64.6859V96.9418C282.016 107.53 274.897 113.946 264.05 113.946C254.76 113.946 248.049 108.885 247.1 101.26H256.253C257.203 104.702 260.254 106.254 264.118 106.254C269.542 106.254 272.73 103.083 272.73 98.4259V94.2428C270.831 97.1446 267.034 98.9661 262.153 98.9661C252.728 98.9661 246.219 92.1467 246.219 81.4886C246.219 70.6924 252.796 64.0129 262.288 64.0129C267.238 64.0129 270.694 65.9008 272.73 68.8027C272.939 67.6477 273.549 66.6026 274.454 65.85C275.359 65.0975 276.5 64.6854 277.679 64.6859H282.016ZM272.728 81.6232C272.728 76.2251 269.405 72.3793 264.32 72.3793C259.302 72.3793 255.981 76.2251 255.981 81.5568C255.981 86.9549 259.302 90.7343 264.32 90.7343C269.405 90.7343 272.728 86.9549 272.728 81.6232Z" fill="black"/>
<path d="M321.068 84.7961H295.575C295.711 89.9914 299.362 92.8932 303.915 92.8932C306.881 92.8932 309.349 91.7501 310.675 89.5068C310.893 89.1401 311.203 88.8363 311.576 88.6255C311.948 88.4146 312.369 88.304 312.797 88.3045H320.796C319.236 95.5923 312.525 100.518 303.642 100.518C293.065 100.518 286.015 93.2306 286.015 82.2316C286.015 71.299 293.065 64.0129 303.576 64.0129C314.086 64.0129 321.066 70.9616 321.066 81.6914L321.068 84.7961ZM295.644 78.5868H311.578C311.17 73.7288 307.712 71.3672 303.578 71.3672C299.506 71.3672 296.05 73.7288 295.642 78.5868H295.644Z" fill="black"/>
<path d="M376.609 90.9353V99.779H344.676V51.1906H354.371V90.9353H376.609Z" fill="black"/>
<path d="M414.509 92.8932V99.779H409.355C406.236 99.779 403.661 98.7023 402.915 95.6622C400.948 98.6323 396.88 100.454 391.66 100.454C383.863 100.454 378.845 96.4052 378.845 89.6576C378.845 83.3765 383.05 79.1305 392.067 79.1305H401.49V77.903C401.492 76.216 400.823 74.5968 399.63 73.3984C398.437 72.2 396.817 71.5195 395.122 71.5053C391.155 71.4802 388.474 73.5781 388.338 76.7096H379.736C379.736 68.8134 386.245 64.0237 395.466 64.0237C403.127 64.0237 411.059 67.4639 411.059 77.7882V90.8886C411.059 92.642 411.941 92.9129 413.093 92.9129L414.509 92.8932ZM401.49 85.268H393.762C389.694 85.268 388.609 87.1577 388.609 89.0474C388.609 91.9475 390.982 93.0278 394.101 93.0278C398.778 93.0278 401.494 90.7343 401.494 86.5493L401.49 85.268Z" fill="black"/>
<path d="M454.644 82.2315C454.644 93.8964 447.661 100.45 437.965 100.45C432.61 100.45 428.339 98.0885 426.575 95.0521L426.034 99.7754H417.154V49.0999H426.71V69.1993C428.541 66.0946 432.744 64.0039 437.964 64.0039C448.074 64.0129 454.644 71.0297 454.644 82.2315ZM444.882 82.2315C444.882 76.1587 441.085 72.4475 435.867 72.4475C430.713 72.3793 426.851 76.1587 426.851 82.2315C426.851 88.3726 430.715 92.0156 435.867 92.0156C441.085 92.0156 444.882 88.3044 444.882 82.2315Z" fill="black"/>
<path d="M465.627 88.7765C465.694 91.9475 468.678 93.7026 472.479 93.7026C476.208 93.7026 478.308 92.4213 478.308 90.0596C478.308 87.9061 477.088 86.6858 473.292 86.011L466.512 84.7279C459.46 83.4465 457.223 79.5325 457.223 74.8092C457.223 68.2625 463.867 64.0129 472.071 64.0129C481.02 64.0129 487.529 68.3989 487.529 75.4157H478.242C478.173 72.4475 475.596 70.7606 472.071 70.7606C468.613 70.7606 466.648 72.2447 466.648 74.4036C466.648 76.4279 468.342 77.3054 471.799 77.912L478.443 79.2615C485.088 80.6111 488 84.0531 488 89.182C488 96.739 480.881 100.45 472.61 100.45C463.254 100.45 456.406 95.8615 456.337 88.7765H465.627Z" fill="black"/>
<path d="M39.2177 132.026C37.0415 132.024 34.8695 131.834 32.7265 131.457C12.5406 127.916 -0.980922 108.695 2.57662 88.6077C4.00223 80.3956 8.20034 72.9134 14.4772 67.3975C20.2213 62.3282 27.3933 59.1403 35.02 58.2666L39.1942 34.7091L60.1266 38.3826L55.9344 62.0066C74.2576 71.2254 81.6035 93.48 72.3427 111.717C69.2452 117.817 64.5103 122.944 58.6631 126.529C52.816 130.114 46.0852 132.017 39.2177 132.026Z" fill="white"/>
<path d="M40.7954 36.9954L57.8222 39.9834L53.7183 63.1335C60.8276 66.3475 66.661 71.8232 70.3004 78.6988C73.9398 85.5744 75.1784 93.4593 73.8213 101.112C70.8119 118.1 55.9704 130.052 39.2177 130.052C37.1551 130.05 35.0966 129.87 33.0655 129.514C13.9308 126.159 1.15578 107.996 4.52761 88.9505C7.39275 72.7902 20.9648 61.1954 36.7024 60.0953L40.7954 36.9954ZM37.5787 32.4228L36.8899 36.3099L33.3125 56.499C11.933 59.7095 -2.78222 79.563 0.443554 100.841C1.48227 107.672 4.32596 114.105 8.68355 119.482C13.0411 124.86 18.7561 128.988 25.2435 131.445C31.7309 133.901 38.7576 134.598 45.6045 133.464C52.4514 132.33 58.8726 129.405 64.2106 124.989C80.8354 111.216 83.0947 86.639 69.2594 70.093C66.1555 66.3833 62.3861 63.2799 58.1432 60.9406L61.735 40.6743L62.4184 36.789L58.511 36.1035L41.4914 33.1083L37.5859 32.4228H37.5787Z" fill="#191257"/>
<path d="M33.0745 129.614C50.9416 132.746 68.0279 121.867 72.963 104.91L71.3005 105.902C69.6002 106.848 66.1382 108.721 63.6499 108.129C61.1021 107.515 59.5208 104.438 57.5807 102.168C55.6964 99.919 53.4533 98.4779 50.7577 98.4367C48.062 98.3954 44.8074 99.7162 42.1027 99.6767C39.353 99.6157 37.164 98.1944 34.4143 98.1352C31.7096 98.0939 28.464 99.4147 26.3742 97.717C24.2844 96.0194 23.2584 91.2565 21.1704 89.5678C19.0355 87.8504 15.8332 89.191 13.5973 87.7553C11.4083 86.3196 10.1714 82.1257 9.58719 80.0386L9.04625 78.1435C9.01019 78.0143 8.97954 77.8815 8.95429 77.7469L8.86414 77.2462C6.68438 80.8779 5.1857 84.8735 4.4411 89.0384C1.05485 107.817 13.9381 126.258 33.0745 129.614Z" fill="url(#paint0_linear)"/>
<path d="M66.8613 43.4972C66.5707 43.4994 66.2805 43.4766 65.994 43.429L31.7745 37.4171C30.471 37.186 29.3127 36.4502 28.5533 35.3708C27.7939 34.2914 27.4953 32.9564 27.7229 31.6583L29.3457 22.4915C29.5478 21.3407 30.1513 20.2977 31.0502 19.5463C31.949 18.7949 33.0853 18.3832 34.2592 18.3837C34.5512 18.3833 34.8427 18.4092 35.1301 18.4609L69.3478 24.4656C69.9939 24.5783 70.6113 24.8166 71.1649 25.1669C71.7184 25.5171 72.1972 25.9725 72.574 26.5069C72.9507 27.0413 73.218 27.6444 73.3605 28.2816C73.5031 28.9189 73.5181 29.5778 73.4048 30.2208L71.782 39.3876C71.5801 40.54 70.9756 41.5843 70.0752 42.3362C69.1749 43.0882 68.0366 43.4993 66.8613 43.4972Z" fill="white"/>
<path d="M34.2592 20.3578C34.4357 20.3581 34.6119 20.3737 34.7857 20.4044L69.0051 26.4091C69.7915 26.547 70.4907 26.9901 70.9489 27.641C71.407 28.2918 71.5867 29.0972 71.4484 29.8798L69.8256 39.0466C69.7576 39.4344 69.6135 39.805 69.4013 40.1372C69.1891 40.4694 68.913 40.7566 68.589 40.9824C68.265 41.2082 67.8994 41.368 67.5132 41.4528C67.127 41.5376 66.7277 41.5456 66.3383 41.4765L32.1153 35.4718C31.3289 35.3339 30.6297 34.8908 30.1715 34.2399C29.7134 33.5891 29.5337 32.7837 29.672 32.001L31.2948 22.8343C31.4181 22.1408 31.7826 21.5125 32.3246 21.0597C32.8667 20.6069 33.5515 20.3584 34.2592 20.3578ZM34.2592 16.4097C32.6179 16.4082 31.0287 16.9835 29.7719 18.0341C28.5151 19.0847 27.6713 20.5431 27.3893 22.1524L25.7665 31.3191C25.4477 33.1326 25.8645 34.998 26.9255 36.5061C27.9866 38.0143 29.6052 39.0421 31.4265 39.3642L65.655 45.3653C66.5583 45.5252 67.4844 45.5061 68.3804 45.3091C69.2763 45.1122 70.1244 44.7413 70.876 44.2177C71.6277 43.6941 72.2683 43.0281 72.761 42.2578C73.2537 41.4875 73.5889 40.628 73.7473 39.7285L75.3701 30.5618C75.6894 28.7482 75.2728 26.8826 74.2117 25.3743C73.1506 23.8661 71.5317 22.8384 69.7102 22.5167L35.4781 16.5102C35.0768 16.44 34.6702 16.4046 34.2628 16.4043L34.2592 16.4097Z" fill="#191257"/>
<path d="M40.786 84.745C41.3632 81.49 39.1796 78.3873 35.9086 77.815C32.6377 77.2427 29.5181 79.4176 28.9408 82.6727C28.3635 85.9277 30.5472 89.0304 33.8181 89.6027C37.0891 90.175 40.2087 88.0001 40.786 84.745Z" fill="url(#paint1_linear)"/>
<path d="M57.1244 81.5227C59.8679 81.5227 62.092 79.3091 62.092 76.5786C62.092 73.8481 59.8679 71.6345 57.1244 71.6345C54.3809 71.6345 52.1569 73.8481 52.1569 76.5786C52.1569 79.3091 54.3809 81.5227 57.1244 81.5227Z" fill="url(#paint2_linear)"/>
<path d="M59.8364 19.2613C62.5799 19.2613 64.804 17.0477 64.804 14.3172C64.804 11.5867 62.5799 9.37311 59.8364 9.37311C57.0929 9.37311 54.8688 11.5867 54.8688 14.3172C54.8688 17.0477 57.0929 19.2613 59.8364 19.2613Z" fill="url(#paint3_linear)"/>
<path d="M45.5539 6.74047C47.4241 6.74047 48.9402 5.23156 48.9402 3.37023C48.9402 1.50891 47.4241 0 45.5539 0C43.6837 0 42.1677 1.50891 42.1677 3.37023C42.1677 5.23156 43.6837 6.74047 45.5539 6.74047Z" fill="url(#paint4_linear)"/>
<defs>
<linearGradient id="paint0_linear" x1="42.6761" y1="88.6203" x2="22.5789" y2="125.991" gradientUnits="userSpaceOnUse">
<stop stop-color="#191257"/>
<stop offset="1" stop-color="#FF1180"/>
</linearGradient>
<linearGradient id="paint1_linear" x1="40.3417" y1="76.1617" x2="30.2258" y2="90.24" gradientUnits="userSpaceOnUse">
<stop stop-color="#FF1180"/>
<stop offset="1" stop-color="#191257"/>
</linearGradient>
<linearGradient id="paint2_linear" x1="-22556.5" y1="-9638.24" x2="-23010.6" y2="-9002.91" gradientUnits="userSpaceOnUse">
<stop stop-color="#FF1180"/>
<stop offset="1" stop-color="#191257"/>
</linearGradient>
<linearGradient id="paint3_linear" x1="-22406.7" y1="-13096.7" x2="-22860.8" y2="-12461.4" gradientUnits="userSpaceOnUse">
<stop stop-color="#FF1180"/>
<stop offset="1" stop-color="#191257"/>
</linearGradient>
<linearGradient id="paint4_linear" x1="-15702.9" y1="-9186.66" x2="-15913.9" y2="-8891.46" gradientUnits="userSpaceOnUse">
<stop stop-color="#FF1180"/>
<stop offset="1" stop-color="#191257"/>
</linearGradient>
</defs>
</svg>
